<svg xmlns="http://www.w3.org/2000/svg" width="24" height="24" viewBox="0 0 24 24"><g transform="translate(4 2) scale(0.750001)"><path d="M4 2.66667C3.64638 2.66667 3.30724 2.80714 3.05719 3.05719C2.80714 3.30724 2.66667 3.64638 2.66667 4V23.0358L10.0051 18.8423C10.4151 18.6081 10.9183 18.6081 11.3282 18.8423L18.6667 23.0358V4C18.6667 3.64638 18.5262 3.30724 18.2761 3.05719C18.0261 2.80714 17.687 2.66667 17.3333 2.66667H4ZM1.17157 1.17157C1.92172 0.421427 2.93913 0 4 0H17.3333C18.3942 0 19.4116 0.421427 20.1618 1.17157C20.9119 1.92172 21.3333 2.93913 21.3333 4V25.3333C21.3333 25.8086 21.0803 26.248 20.6692 26.4865C20.2581 26.7251 19.7512 26.7268 19.3385 26.491L10.6667 21.5357L1.99485 26.491C1.58218 26.7268 1.07518 26.7251 0.664098 26.4865C0.253011 26.248 0 25.8086 0 25.3333V4C0 2.93913 0.421427 1.92172 1.17157 1.17157Z" fill="#000" fill-rule="evenodd"/><path d="M10.6667 5.33333C11.403 5.33333 12 5.93029 12 6.66667V14.6667C12 15.403 11.403 16 10.6667 16C9.93029 16 9.33333 15.403 9.33333 14.6667V6.66667C9.33333 5.93029 9.93029 5.33333 10.6667 5.33333Z" fill="#000" fill-rule="evenodd"/><path d="M5.33333 10.6667C5.33333 9.93029 5.93029 9.33333 6.66667 9.33333H14.6667C15.403 9.33333 16 9.93029 16 10.6667C16 11.403 15.403 12 14.6667 12H6.66667C5.93029 12 5.33333 11.403 5.33333 10.6667Z" fill="#000" fill-rule="evenodd"/></g></svg>